<svg width="48" height="48" viewBox="0 0 48 48" fill="none" xmlns="http://www.w3.org/2000/svg">
<path d="M19.186 21.9419C18.102 21.9419 17.248 22.8919 17.248 24.0519C17.248 25.2079 18.122 26.1619 19.186 26.1619C20.268 26.1619 21.122 25.2079 21.122 24.0519C21.144 22.8899 20.268 21.9419 19.186 21.9419ZM26.122 21.9419C25.038 21.9419 24.184 22.8919 24.184 24.0519C24.184 25.2079 25.058 26.1619 26.122 26.1619C27.204 26.1619 28.058 25.2079 28.058 24.0519C28.056 22.8899 27.204 21.9419 26.122 21.9419Z" fill="white"/>
<path d="M37.503 2.3999H8.09724C7.50515 2.40143 6.91916 2.52094 6.37272 2.75159C5.82628 2.98225 5.3301 3.31954 4.9125 3.7442C4.49491 4.16886 4.16407 4.67258 3.93889 5.22659C3.71371 5.78061 3.59859 6.37407 3.60011 6.9731V36.9875C3.60011 39.5183 5.61885 41.5607 8.09724 41.5607H32.9804L31.814 37.4502L34.625 40.0932L37.2789 42.5796L42.0001 46.7999V6.9731C42.0016 6.37407 41.8865 5.78061 41.6613 5.22659C41.4361 4.67258 41.1053 4.16886 40.6877 3.7442C40.2701 3.31954 39.7739 2.98225 39.2275 2.75159C38.681 2.52094 38.095 2.40143 37.503 2.3999ZM29.0307 31.3931C29.0307 31.3931 28.2408 30.4397 27.5848 29.5914C30.4581 28.7688 31.5553 26.9508 31.5553 26.9508C30.6545 27.549 29.7999 27.9743 29.0307 28.2641C26.2305 29.4497 23.1469 29.7732 20.1658 29.1941C19.0643 28.9752 17.9849 28.6545 16.9414 28.236C16.391 28.0245 15.8561 27.7738 15.3407 27.4859C15.2737 27.4368 15.209 27.4181 15.1444 27.3737C15.1098 27.3571 15.0791 27.3332 15.0543 27.3036C14.6593 27.084 14.4399 26.9297 14.4399 26.9297C14.4399 26.9297 15.4931 28.7057 18.281 29.5493C17.6227 30.3906 16.8097 31.3931 16.8097 31.3931C11.9615 31.2365 10.1206 28.0187 10.1206 28.0187C10.1206 20.8703 13.2804 15.0773 13.2804 15.0773C16.4401 12.6773 19.4452 12.7451 19.4452 12.7451L19.6646 13.0115C15.7149 14.1682 13.8925 15.9209 13.8925 15.9209C13.8925 15.9209 14.3775 15.6545 15.1882 15.2782C17.535 14.236 19.399 13.9462 20.1681 13.8785C20.2998 13.8574 20.4106 13.8341 20.5423 13.8341C24.347 13.3153 28.2157 14.0469 31.5784 15.9209C31.5784 15.9209 29.8438 14.257 26.1135 13.1026L26.4207 12.7474C26.4207 12.7474 29.428 12.6797 32.5855 15.0796C32.5855 15.0796 35.7452 20.8726 35.7452 28.021C35.7452 28.0187 33.8812 31.2365 29.0307 31.3931Z" fill="white"/>
</svg>
