<svg width="176" height="166" viewBox="0 0 176 166" fill="none" xmlns="http://www.w3.org/2000/svg">
<g filter="url(#filter0_ddii_297_931)">
<rect x="40.3596" y="10.9998" width="102.41" height="102.41" rx="22" transform="rotate(8.5723 40.3596 10.9998)" fill="url(#paint0_linear_297_931)"/>
</g>
<path fill-rule="evenodd" clip-rule="evenodd" d="M88.0695 27.3926L89.2073 27.564C91.7467 28.013 94.2273 28.7549 96.5798 29.8089C101.575 32.0417 105.943 35.6524 109.092 40.1248C112.339 44.7226 114.302 50.2165 114.641 55.8339C114.654 56.1892 114.504 56.5495 114.241 56.7822C114.013 56.9761 113.728 57.1026 113.469 57.2622C107.333 60.8362 101.197 64.4102 95.0676 67.9925C96.988 69.5188 98.9074 71.0524 100.827 72.5859C101.201 72.8854 101.6 73.1737 101.903 73.558C102.556 74.3559 102.852 75.4238 102.697 76.4461C101.739 82.8031 100.781 89.16 99.8235 95.5169C99.7566 95.9118 99.7247 96.3193 99.5869 96.6961C99.3487 97.3965 98.8939 98.0201 98.3096 98.4769C97.776 98.8898 97.1133 99.0844 96.5006 99.3381C90.536 101.679 84.5714 104.02 78.6067 106.36C77.6667 106.734 76.5803 106.71 75.6659 106.278C75.0932 106.022 74.6362 105.585 74.1405 105.209C69.2689 101.323 64.3972 97.4379 59.5316 93.5607C59.2163 93.3071 58.8906 93.0739 58.62 92.7681C58.0522 92.1376 57.7279 91.3083 57.6777 90.4688C57.6474 89.9856 57.75 89.5004 57.8216 89.0253C58.7394 82.9347 59.6573 76.8441 60.5751 70.7536C60.6391 70.3288 60.6826 69.8936 60.832 69.4891C61.2072 68.3676 62.1512 67.4791 63.2663 67.117C65.6619 66.1748 68.0646 65.2337 70.4591 64.2987C65.4858 58.8886 60.5114 53.4857 55.5381 48.0756C55.2574 47.7388 55.1983 47.2513 55.3631 46.8417C56.1628 44.7608 57.1853 42.765 58.4159 40.9036C61.6033 36.0754 66.1811 32.1856 71.4641 29.8232C76.6254 27.4865 82.4435 26.6552 88.0529 27.4048L88.0695 27.3926ZM73.776 71.3661C73.8632 70.7387 74.4807 70.2575 75.1055 70.3148C75.7932 70.3448 76.3585 71.0411 76.241 71.7229C75.1203 79.1597 73.9995 86.5965 72.8777 94.0405C72.7775 94.7543 71.9684 95.2362 71.2884 95.0085C70.8434 94.8825 70.5055 94.4856 70.4183 94.038C69.3913 89.6129 68.3261 85.1967 67.3063 80.7726C66.7936 83.9791 66.3397 87.1871 65.8414 90.3958C65.7828 90.7846 65.5442 91.1462 65.1854 91.3278C64.7189 91.5888 64.0863 91.4861 63.7164 91.1064C63.4342 90.8282 63.3067 90.4041 63.3653 90.0153C64.1681 84.6879 64.9699 79.3676 65.7727 74.0402C65.8198 73.6791 66.0047 73.3315 66.3153 73.128C66.7793 72.7856 67.4843 72.8477 67.8942 73.2555C68.0741 73.4299 68.1939 73.6614 68.2517 73.9131C69.2931 78.3404 70.3345 82.7678 71.3759 87.1951C72.1927 81.9213 72.9664 76.641 73.7688 71.365L73.776 71.3661ZM90.0949 72.7431C90.4882 72.6256 90.9314 72.7145 91.2456 72.9754C93.1261 74.4736 95.0066 75.9719 96.886 77.4773C97.4072 77.8798 97.4956 78.7104 97.0725 79.2209C96.6782 79.7358 95.8658 79.849 95.3518 79.4476C94.7724 78.9921 94.2012 78.5305 93.6228 78.0679C92.7726 83.6606 91.9369 89.2555 91.0878 94.841C91.0016 95.4612 90.3964 95.959 89.7716 95.9017C89.0983 95.8739 88.5193 95.2197 88.613 94.5491C89.4636 88.9049 90.307 83.2596 91.1648 77.6164C91.2176 77.1679 91.3292 76.7209 91.3461 76.2669C90.7853 75.7848 90.1882 75.3488 89.6254 74.8811C89.3511 74.6484 89.1922 74.2857 89.1949 73.9254C89.1938 73.3951 89.5726 72.8852 90.0877 72.742L90.0949 72.7431ZM82.098 66.4797C82.5216 66.308 83.0318 66.3922 83.3766 66.6945C84.8813 67.9005 86.4016 69.1015 87.9053 70.3147C88.4149 70.7449 88.4557 71.5978 88.001 72.0741C87.5905 72.5497 86.8195 72.6323 86.3261 72.2414C84.9901 71.186 83.6707 70.1183 82.3275 69.0618C81.6898 73.538 80.9801 78.0033 80.3218 82.469C81.7692 82.6871 83.2239 82.9063 84.6713 83.1245C85.3277 83.216 85.8137 83.9004 85.6862 84.5512C85.6029 85.2013 84.939 85.6976 84.292 85.5927C82.8445 85.3746 81.3971 85.1565 79.9497 84.9383C79.5745 87.1348 79.3073 89.3475 78.9454 91.5534C78.651 93.5558 78.3411 95.5633 78.0467 97.5658C77.9979 97.8898 77.9519 98.2436 77.7357 98.5055C77.3591 99.001 76.6021 99.1372 76.0878 98.7873C75.6562 98.5235 75.4347 97.9894 75.524 97.4949C76.9984 87.7111 78.4717 77.9345 79.9461 68.1507C79.9796 67.6846 80.2417 67.216 80.6901 67.0259C81.154 66.8308 81.6302 66.6522 82.0991 66.4725L82.098 66.4797ZM104.996 52.9372C103.429 52.9735 101.869 53.4526 100.548 54.2991C100.336 54.4365 100.119 54.5583 99.9568 54.7548C97.0584 58.154 94.1672 61.5543 91.2626 64.9452C91.8421 65.4006 92.4133 65.8622 92.9855 66.3166C99.1544 62.7182 105.323 59.1197 111.499 55.5224C109.805 53.8165 107.402 52.8507 104.996 52.9372ZM58.4703 47.5309C63.3047 52.7875 68.1474 58.038 72.9808 63.3019C73.6687 63.0374 74.3506 62.7647 75.0396 62.493C73.2634 58.3967 71.5037 54.2882 69.7347 50.193C69.6071 49.916 69.3894 49.6991 69.1965 49.4639C67.7896 47.853 65.7676 46.8046 63.6386 46.5648C61.8667 46.3493 60.0462 46.7008 58.4703 47.5309ZM81.9082 32.0156C79.8608 33.6287 78.2351 35.7177 76.871 37.9271C75.1534 40.7238 73.8407 43.7656 72.8189 46.8806C74.64 46.1832 76.6447 45.9773 78.5725 46.2825C80.6093 46.5968 82.5604 47.4799 84.1321 48.8285C85.0846 42.5076 86.0361 36.1938 86.9887 29.8729C85.1082 29.9871 83.3691 30.8736 81.9082 32.0156ZM89.4587 30.2451C88.5061 36.5661 87.5546 42.8798 86.6021 49.2007C87.3347 48.8841 88.0986 48.6532 88.8805 48.4986C92.0389 47.8702 95.452 48.679 97.9868 50.6735C97.9347 47.2567 97.5437 43.8403 96.6492 40.5395C95.9519 37.9827 94.9381 35.4738 93.3457 33.3342C92.3383 32.0044 91.0413 30.837 89.4576 30.2523L89.4587 30.2451ZM72.0631 32.299C66.6036 34.8557 62.0067 39.2138 59.1719 44.5369C60.7267 44.0423 62.385 43.8873 64.0035 44.0943C66.2888 44.3725 68.4811 45.3655 70.183 46.9252C71.3677 43.1205 72.9429 39.4114 75.1067 36.0488C76.6242 33.7005 78.4351 31.5069 80.6706 29.819C77.6902 30.1945 74.7744 31.0215 72.0621 32.3062L72.0631 32.299ZM95.5193 32.0567C97.321 34.5665 98.4563 37.4913 99.2152 40.4697C100.124 44.0672 100.484 47.7881 100.494 51.4856C101.318 51.0946 102.2 50.8151 103.097 50.6336C106.057 50.0489 109.24 50.7201 111.712 52.4474C111.081 49.2084 109.887 46.0906 108.177 43.2634C105.235 38.3508 100.752 34.3768 95.5132 32.0484L95.5193 32.0567ZM72.3222 49.8834C74.002 53.7885 75.6829 57.6864 77.3638 61.5842C78.8143 61.0003 80.2759 60.4401 81.7325 59.8644C81.9835 59.7624 82.2385 59.683 82.5047 59.6274C82.8909 57.0645 83.2844 54.5026 83.6634 51.9386C83.4947 51.6408 83.2205 51.408 82.9855 51.1591C81.5432 49.7342 79.5931 48.844 77.5706 48.6791C75.754 48.5157 73.8917 48.9493 72.3222 49.8834ZM90.5066 50.8052C88.9538 50.8952 87.4389 51.4179 86.146 52.2759C85.7504 54.8522 85.3692 57.4306 84.9819 60.0007C85.2126 60.1312 85.4401 60.2833 85.6427 60.4537C86.8649 61.4331 88.0955 62.4063 89.3105 63.3846C92.0655 60.1552 94.8216 56.9186 97.5766 53.6893C95.8263 51.7173 93.1404 50.6278 90.5077 50.798L90.5066 50.8052Z" fill="#FEFEFE"/>
<defs>
<filter id="filter0_ddii_297_931" x="0.816036" y="0.375669" width="175.088" height="165.088" filterUnits="userSpaceOnUse" color-interpolation-filters="sRGB">
<feFlood flood-opacity="0" result="BackgroundImageFix"/>
<feColorMatrix in="SourceAlpha" type="matrix" values="0 0 0 0 0 0 0 0 0 0 0 0 0 0 0 0 0 0 127 0" result="hardAlpha"/>
<feOffset dy="13.6546"/>
<feGaussianBlur stdDeviation="13.6546"/>
<feColorMatrix type="matrix" values="0 0 0 0 0.192129 0 0 0 0 0.0415965 0 0 0 0 0.105548 0 0 0 0.24 0"/>
<feBlend mode="normal" in2="BackgroundImageFix" result="effect1_dropShadow_297_931"/>
<feColorMatrix in="SourceAlpha" type="matrix" values="0 0 0 0 0 0 0 0 0 0 0 0 0 0 0 0 0 0 127 0" result="hardAlpha"/>
<feMorphology radius="10" operator="erode" in="SourceAlpha" result="effect2_dropShadow_297_931"/>
<feOffset dx="20" dy="20"/>
<feGaussianBlur stdDeviation="13.6546"/>
<feColorMatrix type="matrix" values="0 0 0 0 0.909804 0 0 0 0 0.203922 0 0 0 0 0.521569 0 0 0 0.3 0"/>
<feBlend mode="normal" in2="effect1_dropShadow_297_931" result="effect2_dropShadow_297_931"/>
<feBlend mode="normal" in="SourceGraphic" in2="effect2_dropShadow_297_931" result="shape"/>
<feColorMatrix in="SourceAlpha" type="matrix" values="0 0 0 0 0 0 0 0 0 0 0 0 0 0 0 0 0 0 127 0" result="hardAlpha"/>
<feOffset dy="4.2481"/>
<feGaussianBlur stdDeviation="2.12405"/>
<feComposite in2="hardAlpha" operator="arithmetic" k2="-1" k3="1"/>
<feColorMatrix type="matrix" values="0 0 0 0 1 0 0 0 0 0.24126 0 0 0 0 0.61218 0 0 0 1 0"/>
<feBlend mode="normal" in2="shape" result="effect3_innerShadow_297_931"/>
<feColorMatrix in="SourceAlpha" type="matrix" values="0 0 0 0 0 0 0 0 0 0 0 0 0 0 0 0 0 0 127 0" result="hardAlpha"/>
<feOffset dy="-4.2481"/>
<feGaussianBlur stdDeviation="2.12405"/>
<feComposite in2="hardAlpha" operator="arithmetic" k2="-1" k3="1"/>
<feColorMatrix type="matrix" values="0 0 0 0 0.768516 0 0 0 0 0.166386 0 0 0 0 0.422193 0 0 0 1 0"/>
<feBlend mode="normal" in2="effect3_innerShadow_297_931" result="effect4_innerShadow_297_931"/>
</filter>
<linearGradient id="paint0_linear_297_931" x1="91.5644" y1="10.9998" x2="91.5644" y2="113.409" gradientUnits="userSpaceOnUse">
<stop stop-color="#CE2D71"/>
<stop offset="1" stop-color="#FF3B97"/>
</linearGradient>
</defs>
</svg>
