<svg width="174" height="167" viewBox="0 0 174 167" fill="none" xmlns="http://www.w3.org/2000/svg">
<g filter="url(#filter0_ddii_297_938)">
<rect x="25.7446" y="26.2092" width="102.41" height="102.41" rx="22" transform="rotate(-6.4277 25.7446 26.2092)" fill="url(#paint0_linear_297_938)"/>
</g>
<path fill-rule="evenodd" clip-rule="evenodd" d="M96.4507 41.1278C97.2355 41.0655 98.0384 40.9314 98.8089 40.8969C101.427 43.2806 104.02 45.6758 106.614 48.0796C109.208 50.4834 111.788 52.915 114.384 55.336C111.324 58.3683 108.262 61.3921 105.202 64.4244C102.15 67.4558 99.0896 70.4881 96.0377 73.5195C90.5567 74.0674 85.0738 74.5981 79.6156 75.1172C74.1489 75.6373 68.6802 76.1402 63.2191 76.6335C62.9003 76.6607 62.5804 76.6793 62.273 76.7314C60.204 74.8181 58.2362 72.876 56.1929 70.9598C54.6146 69.4624 53.0352 67.9564 51.4674 66.4752C49.89 64.9864 48.3116 63.489 46.7342 62.0002C49.771 59.0665 52.8059 56.1156 55.8427 53.1819C58.8795 50.2482 61.9153 47.3059 64.9511 44.3636C70.1829 43.8438 75.4405 43.3211 80.6876 42.7821C85.9433 42.2421 91.198 41.6936 96.4517 41.1364L96.4507 41.1278ZM114.865 76.7377C115.584 77.407 116.304 78.085 117.024 78.7543C113.963 81.7866 110.902 84.8104 107.841 87.8427C104.789 90.8741 101.729 93.9064 98.6769 96.9378C93.1959 97.4857 87.7129 98.0163 82.2548 98.5355C76.7881 99.0556 71.3194 99.5585 65.8583 100.052C65.5395 100.079 65.2196 100.098 64.9122 100.15C62.8432 98.2364 60.8754 96.2943 58.8321 94.3781C57.2538 92.8807 55.6744 91.3747 54.1066 89.8935C52.5292 88.4047 50.9508 86.9073 49.3734 85.4185L51.1234 83.7293C51.9805 84.5401 52.8367 85.3423 53.6938 86.1532C55.2626 87.643 56.8409 89.1404 58.4193 90.6378C60.454 92.5549 62.4218 94.4971 64.4994 96.4094C64.8068 96.3573 65.1257 96.3301 65.4455 96.3115C70.9152 95.8172 76.3829 95.3057 81.842 94.7952C87.3087 94.2751 92.7917 93.7444 98.2641 93.1975C101.316 90.1661 104.376 87.1338 107.428 84.1024C109.909 81.6414 112.391 79.1891 114.872 76.7281L114.865 76.7377ZM113.97 68.8024C114.69 69.4717 115.41 70.1496 116.129 70.8189C113.069 73.8513 110.007 76.875 106.947 79.9074C103.895 82.9387 100.834 85.9711 97.7826 89.0025C92.3016 89.5503 86.8187 90.081 81.3605 90.6002C75.8938 91.1203 70.4251 91.6231 64.964 92.1164C64.6452 92.1437 64.3253 92.1623 64.0189 92.223C61.9499 90.3097 59.982 88.3675 57.9388 86.4514C56.3604 84.954 54.7811 83.4479 53.2133 81.9668C51.6359 80.478 50.0575 78.9806 48.4801 77.4918L50.2301 75.8025C51.0872 76.6134 51.9433 77.4156 52.8004 78.2265C54.3692 79.7162 55.9476 81.2136 57.526 82.711C59.5606 84.6282 61.5285 86.5703 63.6061 88.4826C63.9135 88.4306 64.2323 88.4033 64.5512 88.3761C70.0209 87.8819 75.4886 87.3704 80.9477 86.8598C86.4144 86.3397 91.8974 85.8091 97.3698 85.2621C100.422 82.2308 103.482 79.1984 106.534 76.167C109.015 73.7061 111.497 71.2537 113.978 68.7928L113.97 68.8024ZM113.076 60.867C113.795 61.5363 114.516 62.2143 115.235 62.8836C112.175 65.9159 109.113 68.9397 106.053 71.972C103.001 75.0034 99.9402 78.0357 96.8883 81.0671C91.4073 81.615 85.9244 82.1457 80.4662 82.6648C74.9995 83.1849 69.5308 83.6878 64.0697 84.1811C63.7509 84.2083 63.431 84.2269 63.1246 84.2876C61.0556 82.3743 59.0877 80.4322 57.0445 78.516C55.4661 77.0186 53.8868 75.5126 52.319 74.0315C50.7416 72.5427 49.1632 71.0453 47.5858 69.5565L49.3358 67.8672C50.1929 68.6781 51.049 69.4803 51.9061 70.2911C53.4749 71.7809 55.0533 73.2783 56.6317 74.7757C58.6663 76.6929 60.6342 78.635 62.7118 80.5473C63.0192 80.4952 63.338 80.468 63.6569 80.4408C69.1266 79.9465 74.5943 79.435 80.0534 78.9245C85.5201 78.4044 91.0031 77.8737 96.4755 77.3268C99.5274 74.2954 102.588 71.2631 105.64 68.2317C108.121 65.7707 110.603 63.3184 113.084 60.8574L113.076 60.867ZM85.109 45.9572C88.3254 45.6209 91.5389 45.2588 94.7457 44.9148C94.782 44.9282 94.846 44.9558 94.8824 44.9692C96.7496 46.7133 98.5681 48.489 100.453 50.2311C99.3152 50.717 98.109 51.1322 96.9315 51.5703C95.5885 50.3081 94.3112 49.0124 92.9854 47.7483C92.7903 47.5608 92.6381 47.3686 92.3953 47.2214C90.4429 47.424 88.4923 47.5653 86.5304 47.7603C83.507 50.7361 80.4378 53.6909 77.4412 56.6724C81.1105 57.4979 84.7464 58.3358 88.4156 59.1613C87.657 59.9187 86.8715 60.6703 86.1215 61.4267C82.4588 60.583 78.7981 59.7566 75.1355 58.9129C73.1987 60.7977 71.2714 62.6902 69.3432 64.5741C67.415 66.4579 65.5049 68.3485 63.5681 70.2333C63.0017 69.6078 62.4256 68.9747 61.8515 68.3588C65.6451 64.6506 69.4386 60.9423 73.2407 57.233C77.0343 53.5247 80.8364 49.8155 84.6289 46.0986C84.6946 45.9865 84.9381 45.9852 85.0918 45.9592L85.109 45.9572ZM101.149 51.1647C102.125 52.1018 102.992 53.0773 103.918 54.0375C104.918 55.1115 105.992 56.1509 106.943 57.2479C106.136 57.967 105.428 58.7099 104.686 59.4567C104.593 59.4061 104.517 59.3535 104.457 59.2818C103.753 58.4363 103.023 57.5937 102.302 56.7587C100.133 58.8966 97.9557 61.0441 95.7873 63.1906C93.618 65.3285 91.441 67.476 89.2812 69.6216C88.7856 70.0875 88.3453 70.5821 87.8143 71.0433C86.3527 71.1993 84.9043 71.3189 83.4341 71.4759C86.2287 68.7091 89.0404 65.9404 91.8436 63.1726C94.6467 60.4049 97.4585 57.6362 100.253 54.8694C99.502 54.0727 98.7433 53.2857 98.017 52.4776C98.054 52.3425 98.3594 52.2732 98.5321 52.1839C99.408 51.8496 100.275 51.5163 101.141 51.1657L101.149 51.1647ZM76.4846 47.1037C77.9377 46.9486 79.3946 46.8281 80.8543 46.6548C77.4049 50.019 73.9554 53.3831 70.4983 56.7568C67.0489 60.1209 63.5918 63.4946 60.1423 66.8587C59.6832 66.4131 59.2154 65.9685 58.739 65.5248C59.8153 63.5712 60.8917 61.6176 61.9766 59.6629C63.0529 57.7093 64.1197 55.748 65.1884 53.804C63.6166 55.2986 62.0629 56.8 60.5178 58.3004C58.9728 59.8008 57.4373 61.3088 55.8922 62.8092C55.3383 62.2958 54.7779 61.8005 54.2746 61.2726C56.5031 59.1193 58.7392 56.9564 60.9591 54.8041C63.1791 52.6518 65.397 50.4822 67.6255 48.3289C68.839 48.2096 70.0544 48.1076 71.2649 47.9624C70.7391 49.1647 70.0653 50.3662 69.4784 51.5667C68.7116 53.1015 67.9362 54.6373 67.1523 56.1741C68.7317 54.6698 70.2834 53.1512 71.8361 51.6413C73.3888 50.1313 74.9405 48.6127 76.5008 47.0931L76.4846 47.1037Z" fill="white"/>
<defs>
<filter id="filter0_ddii_297_938" x="0.757931" y="3.41253" width="173.204" height="163.204" filterUnits="userSpaceOnUse" color-interpolation-filters="sRGB">
<feFlood flood-opacity="0" result="BackgroundImageFix"/>
<feColorMatrix in="SourceAlpha" type="matrix" values="0 0 0 0 0 0 0 0 0 0 0 0 0 0 0 0 0 0 127 0" result="hardAlpha"/>
<feOffset dy="13.6546"/>
<feGaussianBlur stdDeviation="13.6546"/>
<feColorMatrix type="matrix" values="0 0 0 0 0.12143 0 0 0 0 0.0513523 0 0 0 0 0.158138 0 0 0 0.24 0"/>
<feBlend mode="normal" in2="BackgroundImageFix" result="effect1_dropShadow_297_938"/>
<feColorMatrix in="SourceAlpha" type="matrix" values="0 0 0 0 0 0 0 0 0 0 0 0 0 0 0 0 0 0 127 0" result="hardAlpha"/>
<feMorphology radius="10" operator="erode" in="SourceAlpha" result="effect2_dropShadow_297_938"/>
<feOffset dx="20" dy="20"/>
<feGaussianBlur stdDeviation="13.6546"/>
<feColorMatrix type="matrix" values="0 0 0 0 0.596078 0 0 0 0 0.25098 0 0 0 0 0.776471 0 0 0 0.3 0"/>
<feBlend mode="normal" in2="effect1_dropShadow_297_938" result="effect2_dropShadow_297_938"/>
<feBlend mode="normal" in="SourceGraphic" in2="effect2_dropShadow_297_938" result="shape"/>
<feColorMatrix in="SourceAlpha" type="matrix" values="0 0 0 0 0 0 0 0 0 0 0 0 0 0 0 0 0 0 127 0" result="hardAlpha"/>
<feOffset dy="4.2481"/>
<feGaussianBlur stdDeviation="2.12405"/>
<feComposite in2="hardAlpha" operator="arithmetic" k2="-1" k3="1"/>
<feColorMatrix type="matrix" values="0 0 0 0 0.704296 0 0 0 0 0.297843 0 0 0 0 0.9172 0 0 0 1 0"/>
<feBlend mode="normal" in2="shape" result="effect3_innerShadow_297_938"/>
<feColorMatrix in="SourceAlpha" type="matrix" values="0 0 0 0 0 0 0 0 0 0 0 0 0 0 0 0 0 0 127 0" result="hardAlpha"/>
<feOffset dy="-4.2481"/>
<feGaussianBlur stdDeviation="2.12405"/>
<feComposite in2="hardAlpha" operator="arithmetic" k2="-1" k3="1"/>
<feColorMatrix type="matrix" values="0 0 0 0 0.485721 0 0 0 0 0.205409 0 0 0 0 0.632551 0 0 0 1 0"/>
<feBlend mode="normal" in2="effect3_innerShadow_297_938" result="effect4_innerShadow_297_938"/>
</filter>
<linearGradient id="paint0_linear_297_938" x1="76.9494" y1="26.2092" x2="76.9494" y2="128.619" gradientUnits="userSpaceOnUse">
<stop stop-color="#8237A9"/>
<stop offset="1" stop-color="#AD49E2"/>
</linearGradient>
</defs>
</svg>
