<svg width="176" height="166" viewBox="0 0 176 166" fill="none" xmlns="http://www.w3.org/2000/svg">
<g filter="url(#filter0_ddii_297_945)">
<rect x="40.3596" y="11" width="102.41" height="102.41" rx="22" transform="rotate(8.5723 40.3596 11)" fill="url(#paint0_linear_297_945)"/>
</g>
<path d="M64.4336 36.2836C64.5404 35.0219 65.8305 34.0373 67.0594 34.3546C75.5868 35.6528 84.1212 36.9142 92.647 38.2223C92.273 40.9233 91.809 43.6121 91.4576 46.3151C91.3401 48.5247 91.9623 50.9329 93.6582 52.43C94.3539 53.0837 95.2573 53.4739 96.193 53.612C98.9352 54.0267 101.678 54.4459 104.422 54.8492C103.68 59.6481 102.957 64.4497 102.251 69.254C100.927 68.9803 99.592 68.6993 98.2338 68.6776C93.6955 68.5643 89.1678 70.6393 86.1816 74.0922C86.0283 74.3566 85.7176 74.3025 85.4679 74.2634C80.226 73.4633 74.9809 72.6845 69.7385 71.8872C67.8883 71.6519 65.9776 73.0672 65.7292 74.9536C65.2991 76.8069 66.6281 78.8614 68.4935 79.1672C73.1132 79.8837 77.7388 80.5619 82.3604 81.2656C81.7142 84.2769 81.6524 87.4693 82.5949 90.4209C82.8004 91.1924 83.158 91.9069 83.4213 92.6566C75.1376 91.3996 66.8505 90.1652 58.5683 88.8982C57.4425 88.7257 56.668 87.5185 56.8807 86.402C59.3941 69.6952 61.9132 52.9893 64.4336 36.2836ZM70.7285 57.3989C69.5243 57.6893 68.4439 58.5981 68.0529 59.8009C67.8487 60.5557 67.7477 61.3783 68.015 62.13C68.3932 63.4038 69.4855 64.4846 70.8208 64.6481C77.7999 65.6998 84.7801 66.7532 91.7608 67.8037C93.6919 68.131 95.628 66.4713 95.7758 64.5276C96.0399 62.69 94.6779 60.8063 92.8507 60.5425C86.1574 59.5295 79.4611 58.5261 72.7664 57.5129C72.0943 57.4174 71.4086 57.2502 70.7285 57.3989Z" fill="white"/>
<path d="M96.1323 38.7402C98.8977 39.1541 101.662 39.5722 104.427 39.9888C105.125 40.065 105.755 40.5185 106.056 41.1592C106.336 41.6821 106.311 42.3011 106.211 42.8697C105.778 45.6184 105.395 48.3762 104.95 51.123C102.868 50.8238 100.791 50.5021 98.7111 50.1887C97.4001 49.9969 96.1939 49.1574 95.6043 47.9519C95.1227 47.0503 95.0202 45.9865 95.1869 44.9851C95.5006 42.9037 95.8088 40.8201 96.1323 38.7402Z" fill="white"/>
<path d="M92.5394 73.9019C94.7518 72.7528 97.3215 72.1687 99.7923 72.5933C104.038 73.0937 107.732 76.219 109.351 80.1583C110.463 82.7419 110.722 85.6922 110.025 88.4316C109.404 91.184 107.783 93.6548 105.652 95.4624C103.142 97.5729 99.8028 98.6537 96.5524 98.3323L95.5793 98.1857C91.5655 97.3935 88.1111 94.4045 86.5848 90.591C85.478 87.9674 85.287 84.9751 86.0072 82.216C86.9136 78.6892 89.3432 75.5938 92.5394 73.9019ZM103.622 80.5233C100.859 82.899 98.0852 85.2645 95.3191 87.6384C95.088 87.8374 94.8758 88.0638 94.6114 88.2171C94.3703 88.3303 94.1375 88.1413 94.0099 87.9493C93.2435 86.9263 92.4787 85.9021 91.7105 84.8818C91.5325 84.5762 91.1127 84.5695 90.8666 84.7923C90.2961 85.2233 89.6967 85.6179 89.159 86.0886C88.8978 86.3063 89.0953 86.6351 89.2597 86.84C90.4326 88.3584 91.6105 89.8717 92.7787 91.3923C93.0615 91.7456 93.2936 92.1494 93.65 92.434C93.8564 92.5319 94.0528 92.4105 94.2124 92.285C98.5308 88.7308 102.858 85.1852 107.175 81.6294C107.407 81.4698 107.568 81.1368 107.35 80.8964C106.847 80.1874 106.363 79.4524 105.738 78.8456C104.944 79.2821 104.327 79.9631 103.622 80.5233Z" fill="white"/>
<defs>
<filter id="filter0_ddii_297_945" x="0.816036" y="0.375914" width="175.088" height="165.088" filterUnits="userSpaceOnUse" color-interpolation-filters="sRGB">
<feFlood flood-opacity="0" result="BackgroundImageFix"/>
<feColorMatrix in="SourceAlpha" type="matrix" values="0 0 0 0 0 0 0 0 0 0 0 0 0 0 0 0 0 0 127 0" result="hardAlpha"/>
<feOffset dy="13.6546"/>
<feGaussianBlur stdDeviation="13.6546"/>
<feColorMatrix type="matrix" values="0 0 0 0 0.0415965 0 0 0 0 0.0435642 0 0 0 0 0.192129 0 0 0 0.24 0"/>
<feBlend mode="normal" in2="BackgroundImageFix" result="effect1_dropShadow_297_945"/>
<feColorMatrix in="SourceAlpha" type="matrix" values="0 0 0 0 0 0 0 0 0 0 0 0 0 0 0 0 0 0 127 0" result="hardAlpha"/>
<feMorphology radius="10" operator="erode" in="SourceAlpha" result="effect2_dropShadow_297_945"/>
<feOffset dx="20" dy="20"/>
<feGaussianBlur stdDeviation="13.6546"/>
<feColorMatrix type="matrix" values="0 0 0 0 0.2 0 0 0 0 0.211765 0 0 0 0 0.898039 0 0 0 0.3 0"/>
<feBlend mode="normal" in2="effect1_dropShadow_297_945" result="effect2_dropShadow_297_945"/>
<feBlend mode="normal" in="SourceGraphic" in2="effect2_dropShadow_297_945" result="shape"/>
<feColorMatrix in="SourceAlpha" type="matrix" values="0 0 0 0 0 0 0 0 0 0 0 0 0 0 0 0 0 0 127 0" result="hardAlpha"/>
<feOffset dy="4.2481"/>
<feGaussianBlur stdDeviation="2.12405"/>
<feComposite in2="hardAlpha" operator="arithmetic" k2="-1" k3="1"/>
<feColorMatrix type="matrix" values="0 0 0 0 0.24126 0 0 0 0 0.252672 0 0 0 0 1 0 0 0 1 0"/>
<feBlend mode="normal" in2="shape" result="effect3_innerShadow_297_945"/>
<feColorMatrix in="SourceAlpha" type="matrix" values="0 0 0 0 0 0 0 0 0 0 0 0 0 0 0 0 0 0 127 0" result="hardAlpha"/>
<feOffset dy="-4.2481"/>
<feGaussianBlur stdDeviation="2.12405"/>
<feComposite in2="hardAlpha" operator="arithmetic" k2="-1" k3="1"/>
<feColorMatrix type="matrix" values="0 0 0 0 0.166386 0 0 0 0 0.174257 0 0 0 0 0.768516 0 0 0 1 0"/>
<feBlend mode="normal" in2="effect3_innerShadow_297_945" result="effect4_innerShadow_297_945"/>
</filter>
<linearGradient id="paint0_linear_297_945" x1="91.5644" y1="11" x2="91.5644" y2="113.41" gradientUnits="userSpaceOnUse">
<stop stop-color="#2D2FCE"/>
<stop offset="1" stop-color="#3B3EFF"/>
</linearGradient>
</defs>
</svg>
